# xmcd
#
# Track frame offsets: 
#        150
#        14884
#        28937
#        40818
#        50305
#        60761
#        75884
#        88831
#        99350
#        113162
#        126797
#        138671
#        149691
#        164118
#        177486
#        187984
#        199663
#        211615
#        223519
#        234513
#        248061
#        260966
#        271622
#        285046
#        297959
#        308429
#        320187
#        332597
#        344169
#        357913
#
# Disc length: 4914 seconds
#
# Revision: 1
# Processed by: cddbd v1.5.2PL0 Copyright (c) Steve Scherf et al.
# Submitted via: ExactAudioCopyFreeDBPlugin 1.0
#
DISCID=c413301e
DTITLE=Various Artist - Sweet Soul Music:  411 Scorching Classics, 19
DTITLE=61-1975 [Bear Family]
DYEAR=1967
DGENRE=Soul
TTITLE0=Freddie Scott - Are You Lonely for Me
TTITLE1=Cannonball Adderley - Mercy, Mercy, Mercy
TTITLE2=Dyke and The Blazers - Funky Broadway, Part 1
TTITLE3=The Fascinations - Girls Are Out to Get You
TTITLE4=Arthur Conley - Sweet Soul Music
TTITLE5=Toussaint McCall - Nothing Takes the Place of You
TTITLE6=Martha and The Vandellas - Jimmy Mack
TTITLE7=Rodger Collins - She's Looking Good
TTITLE8=O.V. Wright - Eight Men, Four Women
TTITLE9=Otis Redding and Carla Thomas - Tramp
TTITLE10=Marvin Gaye and Tammi Terrell - Ain't No Mountain High Enough
TTITLE11=Aretha Franklin - Respect
TTITLE12=Bettye Swann - Make Me Yours
TTITLE13=J. J. Barnes - Baby Please Come Back Home
TTITLE14=The Bar-Kays - Soul Finger
TTITLE15=Stevie Wonder - I Was Made to Love Her
TTITLE16=The Soul Brothers Six - Some Kind of Wonderful
TTITLE17=Linda Jones - Hypnotized
TTITLE18=Syl Johnson - Come on Sock it to Me
TTITLE19=The Parliaments - (I Wanna) Testify
TTITLE20=James Brown - Cold Sweat, Part 1 (ft The Famous Flames)
TTITLE21=The Esquires - Get On Up
TTITLE22=Jackie Wilson - (Your Love Keeps Lifting Me) Higher and Highe
TTITLE22=r
TTITLE23=Laura Lee - Dirty Man
TTITLE24=The Soul Survivors - Expressway to Your Heart
TTITLE25=Sam and Dave - Soul Man
TTITLE26=Gladys Knight and The Pips - I Heard it Through the Grapevine
TTITLE27=Erma Franklin - Piece of My Heart
TTITLE28=Joe Tex - Skinny Legs and All
TTITLE29=Etta James - Tell Mama
EXTD=
EXTT0=
EXTT1=
EXTT2=
EXTT3=
EXTT4=
EXTT5=
EXTT6=
EXTT7=
EXTT8=
EXTT9=
EXTT10=
EXTT11=
EXTT12=
EXTT13=
EXTT14=
EXTT15=
EXTT16=
EXTT17=
EXTT18=
EXTT19=
EXTT20=
EXTT21=
EXTT22=
EXTT23=
EXTT24=
EXTT25=
EXTT26=
EXTT27=
EXTT28=
EXTT29=
PLAYORDER=
